<svg width="16" height="18" viewBox="0 0 16 18" fill="none" xmlns="http://www.w3.org/2000/svg">
<path fill-rule="evenodd" clip-rule="evenodd" d="M15.4788 7.49683C15.4963 7.69869 15.5051 7.83911 15.5051 7.97953C15.5051 9.9805 15.5051 11.9903 15.5139 13.9825C15.5051 16.4222 13.943 17.9844 11.5032 17.9932C9.17747 18.002 6.85178 18.002 4.52608 17.9932C2.0863 17.9932 0.515358 16.431 0.506582 13.9912C0.497806 10.665 0.497806 7.33009 0.506582 3.99513C0.515358 1.59045 2.07752 0.0195055 4.4822 0.00195312H8.00146V3.47733C8.00146 5.92589 9.5724 7.49683 12.0385 7.49683H14.9785H15.4788ZM6.63237 6.77718C6.05314 6.7333 5.46514 6.7333 4.88591 6.77718C4.49098 6.80351 4.22769 7.18089 4.2628 7.55827C4.30668 7.9532 4.53486 8.19893 4.93857 8.23404C5.11409 8.24574 5.28961 8.24184 5.46514 8.23794C5.5529 8.23599 5.64066 8.23404 5.72842 8.23404C5.82236 8.23404 5.91631 8.23698 6.00992 8.23992C6.19616 8.24576 6.38111 8.25156 6.56216 8.23404C6.96587 8.19893 7.2116 7.93564 7.23793 7.55827C7.26426 7.16334 7.03608 6.80351 6.63237 6.77718ZM5.17552 14.2545C7.06241 14.2633 8.94929 14.2633 10.8362 14.2545C11.4154 14.2457 11.7577 13.9473 11.7489 13.4822C11.7401 13.0346 11.4066 12.7626 10.8362 12.7626H8.02779C7.71217 12.7626 7.39558 12.7616 7.07866 12.7606C6.44385 12.7587 5.80773 12.7567 5.17552 12.7626C4.61385 12.7626 4.28035 13.0346 4.2628 13.4822C4.24525 13.9473 4.59629 14.2545 5.17552 14.2545ZM8.98374 11.255C9.61758 11.257 10.2488 11.2589 10.8801 11.253C11.4066 11.2443 11.7401 10.9547 11.7401 10.5071C11.7489 10.0595 11.433 9.75232 10.9064 9.75232C10.4218 9.75232 9.93659 9.75177 9.45114 9.75122C7.99376 9.74958 6.5339 9.74793 5.07899 9.76109C4.88591 9.76109 4.60507 9.82253 4.52608 9.95417C4.38567 10.1736 4.27157 10.4895 4.31546 10.7353C4.37689 11.1126 4.71916 11.253 5.08776 11.253H8.02779C8.34731 11.253 8.66585 11.254 8.98374 11.255ZM11.5383 5.97855C10.4325 5.91712 9.58118 4.98684 9.51097 3.86348C9.50219 3.74062 9.50219 3.60897 9.50219 3.46855V0.572407L9.50293 0.573142C11.3194 2.38956 13.1095 4.17967 14.9171 5.97855C14.9347 5.94344 14.9259 5.98733 14.9083 5.98733C14.5536 5.98733 14.1988 5.99258 13.8441 5.99783C13.0755 6.00921 12.3069 6.02058 11.5383 5.97855Z" fill="#1CA5FC"/>
</svg>
