<svg width="80" height="80" viewBox="0 0 80 80" fill="none" xmlns="http://www.w3.org/2000/svg">
<rect width="80" height="80" rx="40" fill="#DDFBF4"/>
<path fill-rule="evenodd" clip-rule="evenodd" d="M53.1915 36.0702C48.2756 36.0702 44.3359 32.1181 44.3359 27.1894C44.3359 22.3411 48.333 18.3889 53.2259 18.4004C58.0384 18.4119 61.9895 22.387 62.001 27.1894C62.001 32.0836 58.0614 36.0587 53.1915 36.0702ZM53.559 28.4761C51.124 28.4646 49.2404 29.6135 48.31 31.4402C48.1607 31.7274 48.1492 31.9228 48.4019 32.1755C50.9747 34.7145 55.3163 34.726 57.9006 32.21C58.1648 31.9572 58.2107 31.7504 58.027 31.4287C56.9703 29.5216 55.3623 28.5565 53.559 28.4761ZM53.1455 28.1774C54.8224 28.1889 56.1778 26.8562 56.2007 25.1788C56.2122 23.5015 54.8684 22.1343 53.2029 22.1228C51.526 22.1113 50.1707 23.444 50.1592 25.1329C50.1362 26.8102 51.4686 28.1659 53.1455 28.1774ZM42.9918 23.5129C41.7628 29.4527 42.7851 32.6925 46.9544 36.0932C46.8855 36.2081 46.8166 36.3345 46.7591 36.4608C46.4031 37.2306 46.3686 38.0808 47.0118 38.5863C48.3557 39.6662 48.6773 41.1368 48.884 42.6878C48.9989 43.5724 49.3434 44.2962 50.0326 44.8592C50.1058 44.9141 50.1661 44.982 50.2271 45.0508L50.2271 45.0508C50.281 45.1115 50.3355 45.173 50.4001 45.2268C51.2616 45.9161 51.7784 46.8008 51.9852 47.8692C52.0137 48.019 52.0599 48.1644 52.1074 48.3136L52.1074 48.3136L52.1074 48.3137L52.1074 48.3138C52.1364 48.4048 52.1658 48.4973 52.1919 48.593C52.9844 47.9726 54.133 45.6174 54.6614 43.5609C55.1438 41.6997 55.2127 39.8271 54.9485 37.9199C55.3264 37.8168 55.6878 37.722 56.0647 37.6231L56.0648 37.623L56.0648 37.623L56.0648 37.623L56.0658 37.6228C56.3187 37.5564 56.5786 37.4882 56.8551 37.4144C57.5902 42.8601 56.2349 47.628 52.4446 51.5801C48.459 55.7276 43.5087 57.2441 37.7658 56.4974C38.2597 55.0268 38.4894 53.6251 38.4205 52.1776C38.409 52.0397 38.5698 51.8444 38.7076 51.741C39.3279 51.3044 39.615 50.73 39.592 49.9832C39.5789 49.471 39.5808 48.9552 39.5827 48.4398V48.4396V48.4394V48.4392C39.5841 48.053 39.5855 47.6671 39.5806 47.2833C39.5691 46.6744 39.7758 46.1689 40.2123 45.7438C40.7406 45.2383 41.246 44.7213 41.7514 44.2043C42.4175 43.515 42.4405 42.8257 42.1419 41.941C41.5148 40.0928 40.036 39.0964 38.5572 38.1L38.4435 38.0233C38.1448 37.828 37.6739 37.7821 37.2949 37.8165C36.8814 37.8548 36.4679 37.9442 36.0544 38.0335C35.8477 38.0782 35.6409 38.1229 35.4342 38.1612C34.4349 38.3565 33.6998 38.0463 33.2289 37.2306C32.7925 36.4723 32.9303 35.7715 33.5046 34.9443C33.7917 34.5307 34.0214 33.9678 34.01 33.4852C33.9755 32.4513 34.3201 31.693 35.0781 31.0151C35.8132 30.3603 36.5483 29.6824 36.778 28.637C37.0077 27.6259 36.6172 26.6724 35.6754 26.2473C35.549 26.1898 35.3423 26.2243 35.2045 26.2818C31.1845 27.8557 28.3475 30.6475 26.705 34.6456C26.5672 34.9673 26.6131 35.1856 26.8199 35.4613C27.0381 35.76 27.1759 36.1392 27.2908 36.4953C27.532 37.2766 27.9799 37.828 28.7954 38.0004C30.1782 38.2915 31.0245 39.2887 31.8626 40.2762C31.9504 40.3796 32.0381 40.4829 32.1263 40.5853C32.5381 41.0607 32.5076 41.6452 32.4753 42.2637C32.4608 42.5422 32.4459 42.8275 32.4709 43.1129C29.6683 41.8146 26.8773 41.6308 23.9255 42.6418C23.1789 37.1961 24.5342 32.4398 28.3015 28.4991C32.3101 24.2942 37.2719 22.7662 42.9918 23.5129ZM36.4932 52.7519C36.5162 47.9266 32.5536 43.9285 27.7181 43.917C22.8252 43.9055 18.8396 47.8577 18.8282 52.706C18.8167 57.5887 22.7563 61.5638 27.6377 61.5753C32.5077 61.5983 36.4703 57.6462 36.4932 52.7519ZM32.4043 57.7151C31.072 58.9559 29.4984 59.5763 27.6722 59.6222C25.8689 59.5878 24.2954 58.9674 22.9515 57.7381C22.6874 57.4853 22.607 57.29 22.7907 56.9568C23.8589 55.0382 25.4669 53.9927 27.6722 53.9927C29.8775 54.0042 31.4855 55.0612 32.5421 56.9798C32.7144 57.3015 32.6455 57.4853 32.4043 57.7151ZM27.6492 47.6279C29.3261 47.6164 30.6815 48.9606 30.6815 50.6495C30.6929 52.3498 29.3606 53.6825 27.6722 53.6825C25.9838 53.694 24.6285 52.3498 24.6285 50.6724C24.6285 48.9951 25.9723 47.6394 27.6492 47.6279ZM40.301 61.5804L40.3005 61.5803C39.899 61.5661 39.4692 61.5508 39.0393 61.5184C38.3157 61.4609 37.9252 61.0473 37.9941 60.4384C38.0516 59.864 38.4995 59.5308 39.2001 59.5653C42.0716 59.7491 44.8626 59.37 47.5158 58.2555C54.4992 55.3374 58.634 50.1215 59.8286 42.6308C59.9767 41.6807 59.9794 40.7043 59.9821 39.7264C59.983 39.4153 59.9838 39.1041 59.9894 38.7935C60.0009 38.0582 60.288 37.5987 60.8967 37.5642C61.5055 37.5182 61.9075 37.9089 61.9534 38.6556C62.275 44.3196 60.6555 49.3747 57.049 53.7175C52.8452 58.7611 47.401 61.3001 40.7852 61.5988C40.6301 61.592 40.468 61.5863 40.301 61.5804ZM36.6726 18.7566C26.5652 20.4684 19.0305 29.2803 18.8008 39.5169C18.8123 39.739 18.8212 39.9624 18.8301 40.1858C18.848 40.6325 18.8659 41.0793 18.9042 41.5159C18.9386 42.0214 19.2372 42.3201 19.7311 42.4005C20.4088 42.5039 20.8452 41.9984 20.8452 41.2172C20.8452 40.9752 20.8432 40.7332 20.8412 40.4914C20.8335 39.5849 20.8259 38.6799 20.9256 37.782C22.1317 27.3847 31.148 19.8135 41.577 20.4109C42.3121 20.4454 42.7716 20.1237 42.8175 19.5263C42.8749 18.9174 42.4844 18.4464 41.7493 18.4693C41.4006 18.4788 41.0503 18.4849 40.6994 18.491C39.3516 18.5143 37.994 18.5378 36.6726 18.7566Z" fill="#72B1A4"/>
</svg>
