<svg width="80" height="80" viewBox="0 0 80 80" fill="none" xmlns="http://www.w3.org/2000/svg">
<rect width="80" height="80" rx="40" fill="#FFEBEB"/>
<path d="M54.6492 45.3974C53.137 44.1851 51.6248 42.9858 50.1256 41.7734C48.092 40.1439 46.0584 38.5274 44.0117 36.9109C43.047 36.1549 41.9781 35.8159 40.7266 36.0636C39.5403 36.2982 38.328 36.4547 37.1156 36.572C35.1081 36.7806 33.3352 36.3243 32.1489 34.5514C31.0147 32.8306 31.7969 31.149 33.8045 30.784C34.6127 30.6406 35.434 30.4841 36.2031 30.2365C37.598 29.7672 38.9798 29.2196 40.3616 28.7243C40.9743 28.5027 41.6 28.2941 42.3431 28.0334C42.0042 27.9291 41.8086 27.8509 41.6 27.7987C39.9445 27.3164 38.2889 27.5901 36.6202 27.7335C34.6127 27.903 32.5921 28.0464 30.5845 28.1376C30.1543 28.1507 29.8806 28.2028 29.6199 28.5678C26.9996 31.9442 24.3794 35.3466 21.7461 38.7621C21.3941 39.2183 21.0421 39.6876 20.6641 40.1569C20.9639 40.5089 21.2507 40.8348 21.5244 41.1477C23.6102 39.2705 27.2473 40.8087 27.3125 44.2112C29.3722 44.2112 31.1712 45.4105 31.3797 48.135C34.2477 48.3957 35.3949 49.7254 35.3297 52.7759C37.7935 53.7536 38.6017 55.5917 37.4806 57.8209C37.9239 58.1728 38.3671 58.4987 38.7712 58.8507C39.3057 59.32 39.8793 59.5416 40.5571 59.2287C41.3002 58.8898 41.7825 58.3032 41.8217 57.4819C41.8347 57.1951 41.6522 56.8171 41.4436 56.6085C40.9482 56.1262 40.3746 55.722 39.8271 55.2918C39.4752 55.0181 39.3187 54.6661 39.6186 54.2881C39.9314 53.897 40.2964 53.9882 40.6484 54.275C41.3654 54.8486 42.0693 55.4222 42.7863 55.9697C43.0079 56.1392 43.2687 56.2826 43.5294 56.3217C44.4549 56.4521 45.4457 55.8133 45.8498 54.8747C46.267 53.9231 46.0453 53.0366 45.2241 52.3848C44.5983 51.8764 43.9726 51.381 43.3469 50.8856C42.9688 50.5858 42.7081 50.2338 43.0862 49.7906C43.4381 49.3735 43.8162 49.582 44.1681 49.8558C45.0937 50.5989 46.0323 51.3419 46.9709 52.098C48.0268 52.9453 49.174 52.8411 49.9953 51.8112C50.8557 50.7553 50.7123 49.5299 49.6563 48.6695C48.7177 47.9265 47.7922 47.1834 46.8536 46.4403C46.4625 46.1275 46.1496 45.7755 46.5407 45.3062C46.9188 44.8499 47.3098 45.1237 47.6749 45.4105C49.161 46.6098 50.6601 47.7961 52.1593 48.9824C52.407 49.1779 52.7198 49.3343 53.0197 49.3735C53.9452 49.4777 54.9229 48.7999 55.301 47.8482C55.6921 46.8836 55.4704 46.0493 54.6492 45.3974Z" fill="#D19494"/>
<path d="M51.2976 28.4639C51.1672 28.2945 50.8152 28.0859 50.6718 28.138C49.2509 28.7247 47.7648 28.855 46.2787 28.9854C44.3754 29.1418 42.4982 29.2852 40.6601 29.9761C38.4049 30.8365 36.1887 31.9055 33.7379 32.1662C33.021 32.2444 32.7733 32.7919 33.0601 33.4698C33.5163 34.5648 34.4419 35.1645 35.55 35.2036C36.9057 35.2427 38.2875 35.1515 39.6172 34.8647C41.9507 34.3693 43.9061 34.9168 45.6269 36.5072C45.6399 36.5202 45.666 36.5333 45.679 36.5463C48.6252 38.9059 51.5844 41.2654 54.5436 43.6119C54.713 43.7553 55.0389 43.8987 55.2084 43.8205C57.1377 43.0253 58.8715 41.9693 60.2273 40.2877C59.8623 39.8053 59.5103 39.336 59.1583 38.8667C56.525 35.3861 53.9178 31.9185 51.2976 28.4639Z" fill="#D19494"/>
<path d="M26.1881 25.1657C25.3147 24.6312 24.4152 24.7355 23.646 25.3873C23.0724 25.8826 22.5249 26.4171 22.0556 27.0168C20.6086 28.8418 19.1877 30.6799 17.8059 32.5441C17.3496 33.1698 16.9585 33.8607 16.6326 34.5647C16.2546 35.3469 16.3328 36.1942 16.9064 36.833C17.5973 37.6151 18.4316 38.2669 19.2268 38.997C22.3815 34.8906 25.445 30.9146 28.5867 26.8473C27.7654 26.2737 27.0093 25.661 26.1881 25.1657Z" fill="#D19494"/>
<path d="M64.0697 34.2907C63.809 33.7302 63.47 33.1827 63.105 32.6743C61.6711 30.7319 60.2371 28.8025 58.764 26.8862C58.3599 26.3518 57.8776 25.8694 57.3822 25.4262C56.5609 24.6962 55.6093 24.5919 54.6707 25.1785C53.9015 25.6478 53.1846 26.2084 52.3633 26.7819C55.4659 30.9014 58.4902 34.9165 61.5407 38.9707C62.023 38.6057 62.4532 38.2798 62.8704 37.9408C63.105 37.7453 63.3397 37.5498 63.5483 37.3282C64.4738 36.3635 64.6433 35.4901 64.0697 34.2907Z" fill="#D19494"/>
<path d="M34.2051 51.8503C34.0747 50.5467 32.8624 49.3864 31.5979 49.4777C31.298 49.5038 30.933 49.6341 30.7245 49.8427C29.9684 50.5858 29.2253 51.3549 28.5474 52.1631C27.8565 52.9714 28.0651 54.2098 28.9646 55.018C29.8641 55.8263 30.9852 55.8393 31.7673 55.0441C32.4061 54.3923 33.0449 53.7405 33.6185 53.0366C33.8792 52.6976 34.0096 52.2544 34.2051 51.8503Z" fill="#D19494"/>
<path d="M25.1958 45.5413C26.7993 44.1334 25.5999 42.0085 24.0486 41.6826C23.3968 41.5392 22.8624 41.6174 22.4061 42.1389C21.8455 42.7776 21.272 43.3903 20.6723 43.99C19.9944 44.6679 19.825 45.424 20.19 46.2974C20.555 47.1839 21.4414 47.7705 22.4582 47.8878C22.8363 47.6662 23.2534 47.5098 23.5663 47.223C24.1529 46.7015 24.6092 46.0497 25.1958 45.5413Z" fill="#D19494"/>
<path d="M29.1989 46.1667C28.2994 45.3715 27.1783 45.3715 26.3961 46.1667C25.8355 46.7403 25.3141 47.353 24.7405 47.9136C24.0626 48.5914 23.8671 49.3606 24.2582 50.2209C24.6753 51.1465 25.4184 51.6549 26.5004 51.7853C26.8393 51.6158 27.2434 51.5246 27.5042 51.2769C28.2342 50.5729 28.9251 49.8168 29.5899 49.0477C30.3069 48.2395 30.1114 46.975 29.1989 46.1667Z" fill="#D19494"/>
<path d="M36.5092 55.3442C36.1703 54.7054 35.6488 54.2492 34.9188 54.1058C34.7102 54.0667 34.4104 54.1579 34.267 54.3013C33.6804 54.8749 33.1068 55.4746 32.5853 56.1003C32.4289 56.2828 32.3246 56.6087 32.3637 56.8433C32.4941 57.7819 33.4196 58.5511 34.3713 58.5511C35.3099 58.5511 36.8351 56.8173 36.6917 55.8917C36.6656 55.7092 36.6004 55.5137 36.5092 55.3442Z" fill="#D19494"/>
</svg>
