<svg width="80" height="80" viewBox="0 0 80 80" fill="none" xmlns="http://www.w3.org/2000/svg">
<rect width="80" height="80" rx="40" fill="#FFE5F8"/>
<path fill-rule="evenodd" clip-rule="evenodd" d="M53.0056 31.5565C53.0639 31.9062 53.1688 32.0578 53.5651 32.1161C59.1021 32.8738 62.914 37.3151 62.7974 42.8521C62.7041 47.7014 58.834 52.0844 54.043 52.7488C53.7026 52.7963 53.3514 52.7847 52.9786 52.7723C52.8024 52.7665 52.6214 52.7605 52.4344 52.7605V52.1077V46.0461C52.4227 44.0528 51.292 42.6306 49.3453 42.2459C48.9839 42.176 48.949 41.9895 48.9023 41.6981C48.2962 37.5016 44.6475 34.3542 40.4161 34.3425C36.1846 34.3309 32.501 37.4899 31.9065 41.6631C31.8482 42.0245 31.755 42.1877 31.3703 42.2576C29.5984 42.5957 28.3861 44.0761 28.3744 45.8946C28.3667 47.2697 28.3693 48.6396 28.3719 50.0112C28.3732 50.6977 28.3744 51.3846 28.3744 52.0727V52.7255C24.0614 53.4133 19.0256 49.2401 18.163 44.3209C17.1022 38.3176 21.3337 32.6406 27.5468 32.0461C27.6941 31.6079 27.8268 31.1697 27.9582 30.7354C28.2324 29.8297 28.5013 28.9413 28.8874 28.1061C31.2071 23.0703 36.6858 20.1444 42.1996 20.9254C47.7483 21.7064 52.1663 26.0428 53.0056 31.5565ZM47.385 44.3995C47.7823 44.3969 48.1645 44.3945 48.5417 44.4022C49.6491 44.4138 50.2086 44.9734 50.1969 46.1041V57.1782C50.1969 58.2856 49.6257 58.8684 48.5067 58.8684H32.3152C31.1728 58.8684 30.6133 58.2856 30.6133 57.1315V46.1157C30.6133 44.9734 31.1845 44.4138 32.3385 44.4022H34.0754V42.945C34.122 39.3547 36.908 36.5687 40.4401 36.5804C43.9488 36.592 46.7115 39.3664 46.7581 42.9334C46.7658 43.2383 46.7634 43.5382 46.7609 43.8625C46.7595 44.0341 46.7581 44.2126 46.7581 44.4022C46.972 44.4022 47.1805 44.4008 47.385 44.3995ZM41.6641 52.9467C41.5125 52.3056 41.6291 51.8276 42.107 51.3264C42.8997 50.4754 42.7831 49.1232 41.9438 48.3422C41.1278 47.5612 39.8456 47.5262 38.9713 48.2606C38.0854 49.0067 37.8406 50.3938 38.6333 51.2215C39.2744 51.8859 39.2394 52.5271 39.0995 53.2848C39.0596 53.4844 39.0306 53.6786 39.0013 53.8748C38.9879 53.965 38.9743 54.0556 38.9597 54.1474C38.6799 55.8143 38.7265 55.8726 40.3935 55.8726H41.0346C41.8506 55.8609 42.0604 55.6161 41.9438 54.7885C41.9131 54.5847 41.8874 54.3809 41.8617 54.1775C41.8097 53.7643 41.7578 53.3529 41.6641 52.9467ZM37.0013 44.3672H43.774C43.774 44.1842 43.7773 44.0078 43.7805 43.8361C43.7878 43.4498 43.7946 43.0867 43.7623 42.7236C43.6574 41.0217 42.3402 39.6928 40.6732 39.5529C39.0646 39.413 37.5142 40.5087 37.1761 42.0941C37.067 42.5775 37.0517 43.0818 37.0361 43.5965C37.0284 43.8513 37.0206 44.1086 37.0013 44.3672Z" fill="#C08FB2"/>
</svg>
