<svg width="80" height="80" viewBox="0 0 80 80" fill="none" xmlns="http://www.w3.org/2000/svg">
<rect width="80" height="80" rx="40" fill="#E8F0FC"/>
<path d="M55.0685 36.2144C49.1584 36.2144 43.2596 36.2144 37.3495 36.2144C31.462 36.2144 25.5745 36.2144 19.687 36.2144C18.3397 36.2144 18 36.554 18 37.8674C18 44.0719 18 50.2877 18 56.4922C18 57.7377 18.3736 58.1226 19.6077 58.1226C31.4167 58.1226 43.237 58.1226 55.0459 58.1226C56.2687 58.1226 56.6423 57.749 56.6423 56.5375C56.6423 50.2877 56.6423 44.0492 56.6423 37.7994C56.6423 36.5767 56.28 36.2144 55.0685 36.2144ZM26.435 54.9298C25.699 54.9411 24.9631 54.9298 24.2272 54.9298C23.4912 54.9298 22.7553 54.9411 22.0193 54.9298C21.4532 54.9185 21.1136 54.6014 21.1249 54.1372C21.1362 53.6957 21.4646 53.3673 21.9967 53.3673C23.4912 53.356 24.9744 53.356 26.4689 53.3673C26.9897 53.3787 27.3181 53.7183 27.3068 54.1712C27.2954 54.6241 26.9671 54.9185 26.435 54.9298ZM25.6764 50.8312C24.7706 50.8312 23.8648 50.8425 22.9591 50.8312C21.6004 50.8199 20.8079 50.0386 20.7852 48.7026C20.7739 47.9893 20.7739 47.276 20.7852 46.5514C20.8192 45.4079 21.6117 44.604 22.7666 44.5927C24.7027 44.5701 26.6501 44.5701 28.5862 44.5927C29.7184 44.604 30.5336 45.4305 30.5562 46.5628C30.5788 47.3213 30.5788 48.0686 30.5562 48.8272C30.5336 49.982 29.707 50.8085 28.5409 50.8312C27.6011 50.8425 26.6388 50.8312 25.6764 50.8312ZM35.0964 54.9411C34.3831 54.9524 33.6585 54.9411 32.9452 54.9411C32.2319 54.9411 31.5073 54.9524 30.794 54.9411C30.1939 54.9298 29.8769 54.6581 29.8656 54.1825C29.8542 53.6843 30.1939 53.3787 30.8053 53.3673C32.2432 53.356 33.6698 53.356 35.1077 53.3673C35.6964 53.3673 36.0248 53.6617 36.0248 54.1372C36.0474 54.6354 35.7191 54.9298 35.0964 54.9411ZM43.8823 54.9298C43.1464 54.9411 42.4104 54.9298 41.6745 54.9298C40.9612 54.9298 40.2366 54.9411 39.5233 54.9298C38.9459 54.9185 38.6062 54.6128 38.6062 54.1486C38.6062 53.6844 38.9459 53.3673 39.5233 53.356C40.9725 53.3447 42.4331 53.3447 43.8823 53.356C44.4484 53.356 44.7994 53.6844 44.7994 54.1486C44.7994 54.6128 44.4484 54.9298 43.8823 54.9298ZM52.6343 54.9298C51.8984 54.9411 51.1624 54.9298 50.4378 54.9298C49.7019 54.9298 48.9659 54.9411 48.2413 54.9298C47.7092 54.9185 47.3808 54.6241 47.3582 54.1825C47.3356 53.7183 47.6865 53.3673 48.2413 53.3673C49.7132 53.356 51.1737 53.356 52.6456 53.3673C53.2117 53.3673 53.5627 53.6957 53.5627 54.1599C53.5401 54.6128 53.1891 54.9298 52.6343 54.9298Z" fill="#90A6C8"/>
<path d="M24.0898 34.6176C24.3729 34.6176 24.588 34.6176 24.8145 34.6176C28.0752 34.6176 31.3473 34.6176 34.6081 34.6176C41.424 34.6176 48.2286 34.6063 55.0445 34.6403C55.6785 34.6403 56.3691 34.7875 56.9239 35.0818C57.9089 35.6027 58.2486 36.5537 58.2486 37.652C58.2373 41.0712 58.2373 44.4792 58.2486 47.8985C58.2486 48.0909 58.2826 48.3627 58.3958 48.4419C59.4827 49.1552 60.898 48.5212 61.1131 47.2644C61.7471 43.6187 62.3925 39.9843 63.0265 36.3499C63.1964 35.3536 63.3662 34.3572 63.5473 33.3043C50.8326 31.0512 38.1859 28.8094 25.4938 26.5676C25.0296 29.2736 24.5654 31.9003 24.0898 34.6176Z" fill="#90A6C8"/>
<path d="M63.0969 27.0548C59.7229 26.4547 56.3376 25.8546 52.9636 25.2546C46.4195 24.0884 39.864 22.9222 33.3085 21.7674C31.5649 21.4617 29.8213 21.1447 28.0777 20.839C27.2398 20.6918 26.5718 20.9635 26.4133 21.6315C26.1529 22.7297 25.9944 23.8393 25.7793 24.9942C38.494 27.2473 51.1521 29.489 63.8442 31.7421C64.014 30.7458 64.1838 29.7947 64.3537 28.855C64.5462 27.802 64.1612 27.2359 63.0969 27.0548Z" fill="#90A6C8"/>
<path d="M28.9826 46.7097C28.9826 46.3248 28.8127 46.1663 28.4391 46.1663C26.6162 46.1663 24.7821 46.1663 22.9592 46.1663C22.5516 46.1663 22.3818 46.3474 22.3931 46.7437C22.4044 47.3664 22.4044 47.9891 22.3931 48.6118C22.3818 49.0647 22.5629 49.2572 23.0271 49.2459C23.9103 49.2232 24.7934 49.2459 25.6878 49.2459C26.5936 49.2459 27.4994 49.2345 28.4051 49.2459C28.7901 49.2459 29.0052 49.11 29.0052 48.6911C28.9712 48.0231 28.9712 47.3664 28.9826 46.7097Z" fill="#90A6C8"/>
</svg>
