<svg width="80" height="80" viewBox="0 0 80 80" fill="none" xmlns="http://www.w3.org/2000/svg">
<rect width="80" height="80" rx="40" fill="#FFF4D9"/>
<path d="M33.7562 53.9783C33.7306 53.7518 33.6254 53.5764 33.4404 53.452C33.2554 53.326 33.0225 53.263 32.7418 53.263C32.5408 53.263 32.367 53.2949 32.2203 53.3587C32.0735 53.4209 31.9595 53.507 31.8782 53.6171C31.7984 53.7255 31.7586 53.8491 31.7586 53.9879C31.7586 54.1043 31.7857 54.2048 31.8399 54.2893C31.8957 54.3738 31.9683 54.4448 32.0576 54.5022C32.1485 54.5581 32.2458 54.6051 32.3495 54.6434C32.4531 54.6801 32.5528 54.7104 32.6485 54.7343L33.127 54.8587C33.2833 54.897 33.4436 54.9488 33.6078 55.0142C33.7721 55.0796 33.9244 55.1657 34.0648 55.2726C34.2051 55.3794 34.3184 55.5118 34.4045 55.6697C34.4922 55.8276 34.5361 56.0166 34.5361 56.2367C34.5361 56.5142 34.4643 56.7606 34.3208 56.9759C34.1788 57.1912 33.9723 57.3611 33.7011 57.4855C33.4316 57.6099 33.1054 57.6721 32.7227 57.6721C32.3558 57.6721 32.0385 57.6139 31.7705 57.4974C31.5026 57.381 31.2928 57.216 31.1413 57.0022C30.9898 56.7869 30.9061 56.5317 30.8901 56.2367H31.6318C31.6461 56.4137 31.7035 56.5612 31.804 56.6793C31.9061 56.7957 32.0361 56.8826 32.194 56.94C32.3534 56.9959 32.5281 57.0238 32.7179 57.0238C32.9268 57.0238 33.1126 56.9911 33.2753 56.9257C33.4396 56.8587 33.5688 56.7662 33.6629 56.6482C33.757 56.5286 33.804 56.389 33.804 56.2295C33.804 56.0844 33.7625 55.9656 33.6796 55.873C33.5983 55.7805 33.4874 55.704 33.3471 55.6434C33.2083 55.5828 33.0512 55.5293 32.8758 55.4831L32.2968 55.3252C31.9045 55.2183 31.5935 55.0612 31.3638 54.8539C31.1357 54.6466 31.0217 54.3723 31.0217 54.0309C31.0217 53.7486 31.0983 53.5022 31.2514 53.2917C31.4045 53.0812 31.6118 52.9177 31.8734 52.8013C32.1349 52.6833 32.43 52.6242 32.7586 52.6242C33.0903 52.6242 33.383 52.6825 33.6365 52.7989C33.8917 52.9153 34.0927 53.0756 34.2394 53.2797C34.3861 53.4823 34.4627 53.7152 34.4691 53.9783H33.7562Z" fill="#B4A57E"/>
<path d="M36.1587 52.6912V57.5908H35.4194V52.6912H36.1587Z" fill="#B4A57E"/>
<path d="M41.1898 52.6912V57.5908H40.5103L38.0199 53.9974H37.9745V57.5908H37.2352V52.6912H37.9194L40.4123 56.2893H40.4577V52.6912H41.1898Z" fill="#B4A57E"/>
<path d="M46.3375 54.2845H45.5911C45.5624 54.125 45.509 53.9847 45.4308 53.8635C45.3526 53.7423 45.257 53.6394 45.1437 53.5549C45.0305 53.4703 44.9037 53.4065 44.7633 53.3635C44.6246 53.3204 44.4771 53.2989 44.3208 53.2989C44.0385 53.2989 43.7857 53.3699 43.5624 53.5118C43.3407 53.6537 43.1653 53.8619 43.0361 54.1362C42.9085 54.4105 42.8447 54.7455 42.8447 55.141C42.8447 55.5397 42.9085 55.8762 43.0361 56.1506C43.1653 56.4249 43.3415 56.6322 43.5648 56.7726C43.7881 56.9129 44.0393 56.9831 44.3184 56.9831C44.4731 56.9831 44.6198 56.9624 44.7586 56.9209C44.8989 56.8778 45.0257 56.8148 45.1389 56.7319C45.2522 56.649 45.3479 56.5477 45.426 56.4281C45.5058 56.3069 45.5608 56.1681 45.5911 56.0118L46.3375 56.0142C46.2976 56.255 46.2203 56.4767 46.1054 56.6793C45.9922 56.8802 45.8463 57.0541 45.6676 57.2008C45.4906 57.3459 45.2881 57.4584 45.06 57.5381C44.8319 57.6179 44.5831 57.6577 44.3136 57.6577C43.8893 57.6577 43.5113 57.5573 43.1796 57.3563C42.8479 57.1537 42.5863 56.8643 42.3949 56.4879C42.2051 56.1115 42.1102 55.6625 42.1102 55.141C42.1102 54.6179 42.2059 54.1689 42.3973 53.7941C42.5887 53.4177 42.8503 53.129 43.182 52.9281C43.5137 52.7255 43.8909 52.6242 44.3136 52.6242C44.5735 52.6242 44.816 52.6617 45.0408 52.7367C45.2673 52.8101 45.4707 52.9185 45.6509 53.062C45.8311 53.204 45.9802 53.3778 46.0983 53.5836C46.2163 53.7877 46.296 54.0214 46.3375 54.2845Z" fill="#B4A57E"/>
<path d="M47.2221 57.5908V52.6912H50.2938V53.3276H47.9613V54.8204H50.1336V55.4544H47.9613V56.9544H50.3225V57.5908H47.2221Z" fill="#B4A57E"/>
<path d="M26.5322 44.1171V42.7309L29.7711 39.7319C30.0466 39.4653 30.2776 39.2254 30.4642 39.0121C30.6538 38.7989 30.7974 38.5901 30.8952 38.3857C30.9929 38.1784 31.0418 37.9547 31.0418 37.7148C31.0418 37.4482 30.9811 37.2187 30.8596 37.0262C30.7382 36.8307 30.5723 36.6811 30.362 36.5774C30.1517 36.4708 29.9133 36.4175 29.6467 36.4175C29.3683 36.4175 29.1254 36.4738 28.9181 36.5863C28.7107 36.6989 28.5508 36.8603 28.4382 37.0706C28.3257 37.2809 28.2694 37.5312 28.2694 37.8214H26.4434C26.4434 37.2261 26.5781 36.7092 26.8477 36.2709C27.1172 35.8325 27.4949 35.4933 27.9806 35.2534C28.4664 35.0135 29.0262 34.8936 29.66 34.8936C30.3117 34.8936 30.8789 35.0091 31.3617 35.2401C31.8474 35.4682 32.2251 35.7851 32.4946 36.1909C32.7642 36.5967 32.8989 37.0617 32.8989 37.586C32.8989 37.9296 32.8308 38.2687 32.6946 38.6034C32.5613 38.9381 32.3228 39.3098 31.9792 39.7186C31.6357 40.1244 31.1514 40.6116 30.5264 41.1803L29.198 42.4821V42.5443H33.0189V44.1171H26.5322Z" fill="#B4A57E"/>
<path d="M37.9805 44.317C37.2163 44.314 36.5588 44.126 36.0079 43.7527C35.4599 43.3795 35.0378 42.839 34.7416 42.1311C34.4484 41.4232 34.3033 40.5716 34.3062 39.5764C34.3062 38.5841 34.4528 37.7385 34.7461 37.0395C35.0423 36.3405 35.4643 35.8088 36.0123 35.4445C36.5632 35.0772 37.2193 34.8936 37.9805 34.8936C38.7417 34.8936 39.3963 35.0772 39.9443 35.4445C40.4952 35.8118 40.9188 36.3449 41.215 37.0439C41.5112 37.74 41.6578 38.5841 41.6548 39.5764C41.6548 40.5746 41.5067 41.4276 41.2105 42.1355C40.9173 42.8434 40.4967 43.384 39.9487 43.7572C39.4008 44.1304 38.7447 44.317 37.9805 44.317ZM37.9805 42.722C38.5018 42.722 38.918 42.4599 39.229 41.9356C39.54 41.4113 39.694 40.6249 39.6911 39.5764C39.6911 38.8863 39.62 38.3116 39.4778 37.8525C39.3386 37.3934 39.1401 37.0484 38.8824 36.8173C38.6277 36.5863 38.3271 36.4708 37.9805 36.4708C37.4622 36.4708 37.0475 36.73 36.7365 37.2483C36.4255 37.7666 36.2685 38.5427 36.2656 39.5764C36.2656 40.2754 36.3352 40.8589 36.4744 41.3269C36.6165 41.7919 36.8165 42.1414 37.0742 42.3754C37.3319 42.6065 37.634 42.722 37.9805 42.722Z" fill="#B4A57E"/>
<path d="M46.9852 35.018V44.1171H45.0614V36.844H45.0081L42.9244 38.1502V36.4441L45.177 35.018H46.9852Z" fill="#B4A57E"/>
<path d="M53.1065 35.018V44.1171H51.1827V36.844H51.1294L49.0456 38.1502V36.4441L51.2982 35.018H53.1065Z" fill="#B4A57E"/>
<path opacity="0.76" d="M62.1221 46.9175L62.0634 47.09C61.9262 47.4706 61.4109 47.4916 61.2275 47.1424C60.7343 46.2105 60.0019 45.5744 59.0445 45.1581C58.8514 45.0693 58.6171 45.1301 58.4927 45.3034C57.3035 46.9543 57.7838 49.2081 59.7312 50.912C59.9124 51.0641 59.9407 51.3316 59.8115 51.5302L59.7046 51.6805C59.4732 52.004 58.9667 51.9087 58.8713 51.5105C58.6346 50.4695 58.0898 49.6721 57.279 49.0343C57.1081 48.8973 56.858 48.9027 56.7004 49.0434C55.1291 50.4258 55.0191 52.5422 56.4801 54.81C56.6114 55.0183 56.5589 55.2969 56.3609 55.4432C55.4083 56.116 55.0132 56.2645 54.0843 57.0205C53.3382 57.6405 53.6022 58.1884 53.8885 58.4783C54.2745 58.8656 54.9727 58.7086 55.9682 57.8078C56.5005 57.2787 57.13 56.8597 57.7263 56.4082C57.8768 56.3054 58.066 56.2755 58.2313 56.3721C60.6776 57.7242 62.6328 57.4367 64.1476 55.5193C64.287 55.3358 64.269 55.0833 64.1179 54.9106C63.3966 54.1455 62.6173 53.8283 61.1602 53.6983C60.8112 53.6719 60.6247 53.2697 60.8109 52.977C61.0272 52.6637 61.2285 52.3607 61.4653 52.0775C61.5501 51.9755 61.8865 51.9995 62.0843 52.0629C64.3213 52.7856 66.463 51.7859 67.3709 49.61C67.462 49.4043 67.3656 49.1502 67.1774 49.036C66.1093 48.4416 64.991 48.3229 63.7845 48.6726C63.5351 48.7437 63.3177 48.5061 63.4033 48.26C63.5429 47.8667 63.6777 47.4988 63.8276 47.1206C63.9037 46.9251 64.0969 46.8042 64.3043 46.817C65.5943 46.9287 66.7581 46.5972 67.7355 45.6536C68.4578 44.9505 68.817 44.0873 68.9578 43.1305C68.9856 42.9128 68.8544 42.7046 68.659 42.6284C67.7403 42.2851 66.7714 42.4173 65.4468 43.0464C65.1301 43.1965 64.7559 42.9556 64.7846 42.594C64.8158 42.2196 64.8445 41.8579 64.9113 41.5034C64.9351 41.3768 65.1861 41.2273 65.35 41.1926C67.705 40.7313 69.0955 38.7774 68.7656 36.4209C68.7301 36.1913 68.5261 36.0218 68.3013 36.0319C67.167 36.0675 66.2035 36.4499 65.3735 37.2376C65.1034 37.4883 64.6571 37.3518 64.5948 36.9861C64.5484 36.6758 64.4868 36.3758 64.438 36.0782C64.3978 35.8739 64.5143 35.673 64.69 35.575C65.8737 34.998 66.7561 34.1415 67.1022 32.7907C67.349 31.8276 67.2452 30.9166 66.8786 30.0085C66.7901 29.782 66.5362 29.6687 66.3121 29.7445C65.2267 30.0777 64.3897 30.6936 63.8017 31.658C63.6107 31.9761 63.143 31.9536 62.9849 31.6092C62.8553 31.3225 62.7233 31.0486 62.604 30.777C62.5211 30.591 62.564 30.3631 62.7192 30.2349C64.8164 28.4271 64.6749 25.975 63.4177 24.2961C63.2714 24.0981 63.0055 24.0481 62.7996 24.1667C61.7005 24.8513 60.9835 25.8045 60.7309 27.1467L60.7285 27.1594C60.6617 27.5139 60.1457 27.4692 60.1214 27.1106C59.9722 25.5355 59.3859 24.1927 58.1931 23.0766C57.3144 22.2425 56.2273 21.7494 54.9824 21.6068C54.7267 21.5718 54.4939 21.764 54.4716 22.022C54.3391 23.4917 54.703 24.8319 55.6036 26.0372C56.0962 26.6937 56.6831 27.1976 57.3319 27.5819C57.7108 27.7975 57.6186 28.357 57.1825 28.4453C57.1698 28.4429 57.1698 28.4429 57.1547 28.4532C56.542 28.5738 55.9719 28.8861 55.394 29.1706C55.1477 29.2947 55.0628 29.6064 55.2019 29.8424C56.4779 31.8395 58.2884 32.3901 60.6366 31.5473C60.8607 31.4715 61.117 31.5722 61.2206 31.7883L61.2854 31.9316C61.4537 32.2911 61.1043 32.6842 60.719 32.5723C59.7148 32.2653 58.7555 32.3469 57.807 32.719C57.6083 32.7996 57.487 33.0259 57.5272 33.2301C57.965 35.2922 59.7877 36.4745 62.3507 36.3014C62.5905 36.281 62.7946 36.4506 62.8427 36.6825L62.8774 36.8464C62.9476 37.2398 62.5136 37.5252 62.1726 37.3168C61.2818 36.7558 60.3346 36.5643 59.3126 36.6997C59.0981 36.7249 58.931 36.9163 58.9158 37.1363C58.839 39.2851 60.295 40.8834 62.7538 41.3332C62.9944 41.3785 63.151 41.5915 63.1334 41.8242L63.115 41.9912C63.0791 42.3909 62.5883 42.5607 62.3146 42.2732C61.5831 41.493 60.7191 41.0682 59.6918 40.9534C59.4742 40.9256 59.2659 41.0568 59.2001 41.2673C58.5504 43.2558 59.5399 45.1727 61.8653 46.3316C62.1066 46.4426 62.203 46.6967 62.1221 46.9175Z" fill="#B4A57E"/>
<path opacity="0.76" d="M18.6787 46.9175L18.7374 47.09C18.8746 47.4706 19.3899 47.4916 19.5732 47.1424C20.0664 46.2105 20.7989 45.5744 21.7563 45.1581C21.9494 45.0693 22.1837 45.1301 22.3081 45.3034C23.4973 46.9543 23.0169 49.2081 21.0695 50.912C20.8884 51.0641 20.8601 51.3316 20.9893 51.5302L21.0962 51.6805C21.3276 52.004 21.834 51.9087 21.9295 51.5105C22.1662 50.4695 22.711 49.6721 23.5218 49.0343C23.6926 48.8973 23.9427 48.9027 24.1004 49.0434C25.6717 50.4258 25.7817 52.5422 24.3206 54.81C24.1894 55.0183 24.2419 55.2969 24.4398 55.4432C25.3925 56.116 25.7875 56.2645 26.7165 57.0205C27.4626 57.6405 27.1986 58.1884 26.9123 58.4783C26.5263 58.8656 25.8281 58.7086 24.8326 57.8078C24.3003 57.2787 23.6708 56.8597 23.0744 56.4082C22.924 56.3054 22.7348 56.2755 22.5694 56.3721C20.1231 57.7242 18.168 57.4367 16.6532 55.5193C16.5138 55.3358 16.5318 55.0833 16.6829 54.9106C17.4041 54.1455 18.1835 53.8283 19.6406 53.6983C19.9896 53.6719 20.1761 53.2697 19.9899 52.977C19.7736 52.6637 19.5723 52.3607 19.3354 52.0775C19.2507 51.9755 18.9143 51.9995 18.7165 52.0629C16.4795 52.7856 14.3378 51.7859 13.4299 49.61C13.3388 49.4043 13.4351 49.1502 13.6234 49.036C14.6915 48.4416 15.8098 48.3229 17.0163 48.6726C17.2656 48.7437 17.4831 48.5061 17.3975 48.26C17.2579 47.8667 17.1231 47.4988 16.9732 47.1206C16.8971 46.9251 16.7038 46.8042 16.4965 46.817C15.2064 46.9287 14.0427 46.5972 13.0653 45.6536C12.343 44.9505 11.9838 44.0873 11.843 43.1305C11.8151 42.9128 11.9464 42.7046 12.1418 42.6284C13.0605 42.2851 14.0294 42.4173 15.354 43.0464C15.6707 43.1965 16.0449 42.9556 16.0161 42.594C15.985 42.2196 15.9562 41.8579 15.8895 41.5034C15.8657 41.3768 15.6146 41.2273 15.4508 41.1926C13.0958 40.7313 11.7053 38.7774 12.0352 36.4209C12.0706 36.1913 12.2747 36.0218 12.4995 36.0319C13.6337 36.0675 14.5973 36.4499 15.4273 37.2376C15.6974 37.4883 16.1437 37.3518 16.206 36.9861C16.2524 36.6758 16.3139 36.3758 16.3628 36.0782C16.403 35.8739 16.2865 35.673 16.1107 35.575C14.927 34.998 14.0447 34.1415 13.6986 32.7907C13.4518 31.8276 13.5556 30.9166 13.9222 30.0085C14.0106 29.782 14.2646 29.6687 14.4887 29.7445C15.574 30.0777 16.4111 30.6936 16.9991 31.658C17.1901 31.9761 17.6578 31.9536 17.8159 31.6092C17.9455 31.3225 18.0774 31.0486 18.1968 30.777C18.2797 30.591 18.2368 30.3631 18.0816 30.2349C15.9844 28.4271 16.1259 25.975 17.3831 24.2961C17.5294 24.0981 17.7953 24.0481 18.0012 24.1667C19.1003 24.8513 19.8173 25.8045 20.0699 27.1467L20.0723 27.1594C20.1391 27.5139 20.6551 27.4692 20.6794 27.1106C20.8286 25.5355 21.4149 24.1927 22.6076 23.0766C23.4864 22.2425 24.5735 21.7494 25.8184 21.6068C26.074 21.5718 26.3069 21.764 26.3292 22.022C26.4617 23.4917 26.0978 24.8319 25.1972 26.0372C24.7046 26.6937 24.1176 27.1976 23.4689 27.5819C23.0899 27.7975 23.1822 28.357 23.6183 28.4453C23.631 28.4429 23.631 28.4429 23.646 28.4532C24.2587 28.5738 24.8288 28.8861 25.4068 29.1706C25.6531 29.2947 25.738 29.6064 25.5989 29.8424C24.3229 31.8395 22.5123 32.3901 20.1642 31.5473C19.9401 31.4715 19.6838 31.5722 19.5802 31.7883L19.5154 31.9316C19.3471 32.2911 19.6964 32.6842 20.0818 32.5723C21.086 32.2653 22.0453 32.3469 22.9938 32.719C23.1925 32.7996 23.3138 33.0259 23.2736 33.2301C22.8358 35.2922 21.0131 36.4745 18.4501 36.3014C18.2103 36.281 18.0062 36.4506 17.9581 36.6825L17.9234 36.8464C17.8532 37.2398 18.2872 37.5252 18.6281 37.3168C19.519 36.7558 20.4662 36.5643 21.4881 36.6997C21.7026 36.7249 21.8698 36.9163 21.885 37.1363C21.9618 39.2851 20.5058 40.8834 18.047 41.3332C17.8064 41.3785 17.6498 41.5915 17.6674 41.8242L17.6857 41.9912C17.7216 42.3909 18.2125 42.5607 18.4861 42.2732C19.2177 41.493 20.0817 41.0682 21.109 40.9534C21.3266 40.9256 21.5349 41.0568 21.6007 41.2673C22.2504 43.2558 21.2608 45.1727 18.9355 46.3316C18.6942 46.4426 18.5978 46.6967 18.6787 46.9175Z" fill="#B4A57E"/>
</svg>
