<svg width="80" height="80" viewBox="0 0 80 80" fill="none" xmlns="http://www.w3.org/2000/svg">
<rect width="80" height="80" rx="40" fill="#E5FCE8"/>
<path fill-rule="evenodd" clip-rule="evenodd" d="M47.908 19.7659V19.7641C47.908 19.7052 47.8785 19.6315 47.849 19.5578C47.8196 19.4841 47.7901 19.4105 47.7901 19.3515L43.841 18.1137C43.7231 18.0548 43.6642 17.9959 43.6052 17.9369L41.2475 14.5772C41.1296 14.3414 40.776 14.3414 40.5992 14.5772L38.2415 17.9369C38.1825 18.0548 38.0647 18.1137 38.0057 18.1137L34.0566 19.3515C33.8798 19.4105 33.7619 19.5873 33.7619 19.7641V19.8639L33.724 19.8753C33.7069 19.8697 33.6898 19.8611 33.6726 19.8525C33.6432 19.8378 33.6137 19.8231 33.5842 19.8231V19.93C33.5837 19.9335 33.5834 19.9372 33.5834 19.9411C33.5834 19.9706 33.5982 19.9853 33.6129 20.0001C33.6277 20.0148 33.6424 20.0295 33.6424 20.059L34.8212 21.6504L36.2358 23.5366C36.2948 23.5955 36.2948 23.7134 36.2948 23.7724L36.118 27.7215C36.118 28.0162 36.4127 28.193 36.6484 28.1341L36.7536 28.0974C36.7775 28.0923 36.802 28.0849 36.8269 28.0749L40.6724 26.7348C40.7111 26.7379 40.7484 26.7525 40.7744 26.7784L44.6645 28.1341C44.8195 28.1961 44.9582 28.1602 45.0549 28.0694C45.2252 28.0211 45.3735 27.8714 45.3735 27.6623L45.1966 23.7132C45.1966 23.6543 45.1966 23.5364 45.2556 23.4775L46.6702 21.5913L46.6738 21.5865L46.6738 21.5909L47.558 20.412L47.8527 19.9994C47.9116 19.9405 47.9116 19.8226 47.9116 19.7637L47.908 19.7659ZM49.0852 21.2378H49.0892L49.1479 21.1791L49.2069 21.238L51.6235 20.4718C51.6824 20.4718 51.8003 20.4129 51.8592 20.295L53.6275 17.8194C53.8043 17.5836 54.158 17.5836 54.2759 17.8194L56.0441 20.295C56.1031 20.3539 56.162 20.4129 56.2799 20.4718L59.227 21.3559C59.5217 21.4149 59.5806 21.7685 59.4038 22.0043L57.3998 24.5977C57.3409 24.6567 57.2819 24.7746 57.3409 24.8335L57.4587 27.7217C57.4587 27.8985 57.3409 28.0753 57.223 28.1343C57.1711 28.1861 57.0738 28.1923 56.9709 28.153C56.9208 28.1631 56.8731 28.1673 56.8066 28.1341L53.9774 27.132C53.945 27.1159 53.9171 27.1041 53.8912 27.0968C53.8651 27.1041 53.837 27.1159 53.8043 27.1322L50.9751 28.1343C50.8753 28.1742 50.7823 28.1735 50.7029 28.1438C50.4824 28.1264 50.323 27.9638 50.323 27.7215L50.4409 24.8333C50.4998 24.7744 50.4409 24.6565 50.3819 24.5975L48.4958 22.063L48.4368 22.0041C48.26 21.7683 48.3189 21.4147 48.6137 21.3557L49.0852 21.2378ZM57.0424 29.9023C57.396 29.9023 57.7497 29.7844 58.1033 29.6076C58.7517 30.7864 59.2822 31.9653 59.7537 33.2031H19.791C20.4394 31.4348 21.2646 29.7255 22.3255 28.193C22.3845 28.6056 22.5613 28.9592 22.856 29.254C23.2686 29.6666 23.858 29.9023 24.4474 29.9023C24.6832 29.9023 24.919 29.8434 25.1547 29.7844L25.1547 29.7844L27.5714 28.9592L29.988 29.7844L29.988 29.7844C30.2238 29.8434 30.4595 29.9023 30.6953 29.9023C31.2847 29.9023 31.8741 29.6666 32.2867 29.254C32.6993 28.8414 32.8761 28.2519 32.8761 27.6625L32.7583 25.2459L34.055 23.5366L34.5265 24.1849L34.3497 27.6625C34.2908 28.2519 34.5265 28.8414 34.9391 29.254C35.3517 29.6666 35.9411 29.9023 36.5305 29.9023C36.7663 29.9023 37.0021 29.8434 37.2379 29.7844L40.7154 28.6056L44.193 29.7844C44.4288 29.8434 44.6645 29.9023 44.9003 29.9023C45.4897 29.9023 46.0792 29.6666 46.4917 29.254C46.9043 28.8414 47.0812 28.2519 47.0812 27.6625L46.9043 24.1849L47.3759 23.5366L48.6726 25.2459L48.5547 27.6625C48.4958 28.2519 48.7315 28.8414 49.1441 29.254C49.5567 29.6666 50.1462 29.9023 50.7356 29.9023C50.9713 29.9023 51.2071 29.8434 51.4429 29.7844L53.9184 28.9592L56.3351 29.7844C56.5708 29.8434 56.8066 29.9023 57.0424 29.9023ZM32.9965 22.0037L32.4271 22.7457L31.0489 24.5975C31.0065 24.64 30.9946 24.7131 30.9913 24.7727L30.9925 24.7739L31.1104 27.6621C31.1104 27.6805 31.1095 27.6985 31.1077 27.716L31.1079 27.7215C31.1079 27.8309 31.0672 27.9241 31.0041 27.995C30.9217 28.1745 30.7365 28.2798 30.5192 28.1929L27.631 27.1909H27.3363L24.4482 28.1929C24.1534 28.2518 23.9177 28.075 23.9177 27.7803L23.9766 26.012L24.0356 24.8921C24.0945 24.8332 24.0356 24.7153 23.9766 24.6564L22.0315 22.0629C21.9194 21.8387 21.9672 21.5078 22.2257 21.4253C22.2687 21.3726 22.3236 21.3281 22.387 21.2964L25.3286 20.4139C25.3511 20.3938 25.3711 20.3737 25.3912 20.3536L25.3912 20.3536L27.1595 17.878C27.2057 17.7856 27.2882 17.7294 27.382 17.7094C27.5681 17.5255 27.8777 17.5423 27.9865 17.7598L29.7547 20.2354C29.8137 20.2943 29.8726 20.3533 29.9905 20.4122L31.2283 20.7659L32.466 21.1785L32.9376 21.2964C33.0555 21.4732 33.1144 21.7679 32.9965 22.0037ZM39.7729 61.2C46.4334 61.2 52.3276 58.135 56.2178 53.3018H23.3281C27.1594 58.135 33.1125 61.2 39.7729 61.2ZM60.4037 34.9717C61.4647 35.0306 62.2899 35.8558 62.2899 36.8578V49.7072C62.2899 50.7092 61.4647 51.5344 60.4037 51.5344H19.0854C18.0244 51.5344 17.1992 50.7092 17.1992 49.7072V36.8578C17.1992 35.8558 18.0244 34.9717 19.0854 34.9717H60.4037Z" fill="#8EC998"/>
<path d="M22.2285 46.8772V39.1612H25.1823C25.7399 39.1612 26.2033 39.2491 26.5726 39.4249C26.9443 39.5982 27.2218 39.8356 27.4052 40.137C27.5911 40.4384 27.684 40.78 27.684 41.1618C27.684 41.4757 27.6237 41.7445 27.5032 41.968C27.3826 42.1891 27.2206 42.3686 27.0171 42.5068C26.8137 42.6449 26.5864 42.7441 26.3352 42.8044V42.8798C26.609 42.8948 26.8715 42.979 27.1226 43.1322C27.3763 43.2829 27.5835 43.4964 27.7443 43.7727C27.905 44.049 27.9854 44.3831 27.9854 44.7749C27.9854 45.1742 27.8887 45.5334 27.6953 45.8524C27.5019 46.1689 27.2105 46.4188 26.8212 46.6022C26.4319 46.7855 25.9421 46.8772 25.3519 46.8772H22.2285ZM23.6263 45.7092H25.1296C25.6369 45.7092 26.0024 45.6125 26.2259 45.4191C26.452 45.2232 26.565 44.9721 26.565 44.6656C26.565 44.4371 26.5085 44.2311 26.3955 44.0477C26.2825 43.8619 26.1217 43.7162 25.9132 43.6107C25.7048 43.5027 25.4561 43.4487 25.1672 43.4487H23.6263V45.7092ZM23.6263 42.4427H25.009C25.2501 42.4427 25.4674 42.3988 25.6608 42.3109C25.8542 42.2204 26.0062 42.0936 26.1167 41.9303C26.2297 41.7646 26.2862 41.5687 26.2862 41.3426C26.2862 41.0437 26.1807 40.7976 25.9697 40.6041C25.7613 40.4107 25.4511 40.314 25.0391 40.314H23.6263V42.4427Z" fill="#E5FCE8"/>
<path d="M36.0961 43.0192C36.0961 43.8506 35.9404 44.5626 35.6289 45.1554C35.32 45.7457 34.898 46.1978 34.363 46.5117C33.8305 46.8257 33.2265 46.9827 32.5508 46.9827C31.8751 46.9827 31.2698 46.8257 30.7348 46.5117C30.2023 46.1953 29.7804 45.7419 29.4689 45.1516C29.16 44.5589 29.0055 43.8481 29.0055 43.0192C29.0055 42.1878 29.16 41.477 29.4689 40.8867C29.7804 40.2939 30.2023 39.8406 30.7348 39.5266C31.2698 39.2126 31.8751 39.0557 32.5508 39.0557C33.2265 39.0557 33.8305 39.2126 34.363 39.5266C34.898 39.8406 35.32 40.2939 35.6289 40.8867C35.9404 41.477 36.0961 42.1878 36.0961 43.0192ZM34.6908 43.0192C34.6908 42.4339 34.5991 41.9404 34.4158 41.5385C34.2349 41.1341 33.9837 40.8289 33.6622 40.623C33.3407 40.4145 32.9703 40.3103 32.5508 40.3103C32.1313 40.3103 31.7609 40.4145 31.4394 40.623C31.1179 40.8289 30.8654 41.1341 30.6821 41.5385C30.5012 41.9404 30.4108 42.4339 30.4108 43.0192C30.4108 43.6044 30.5012 44.0992 30.6821 44.5036C30.8654 44.9055 31.1179 45.2107 31.4394 45.4191C31.7609 45.6251 32.1313 45.7281 32.5508 45.7281C32.9703 45.7281 33.3407 45.6251 33.6622 45.4191C33.9837 45.2107 34.2349 44.9055 34.4158 44.5036C34.5991 44.0992 34.6908 43.6044 34.6908 43.0192Z" fill="#E5FCE8"/>
<path d="M43.7585 39.1612V46.8772H42.5152L38.8794 41.6214H38.8154V46.8772H37.4176V39.1612H38.6684L42.3004 44.4207H42.3682V39.1612H43.7585Z" fill="#E5FCE8"/>
<path d="M50.1455 39.1612H51.5433V44.2022C51.5433 44.7548 51.4127 45.2408 51.1514 45.6603C50.8927 46.0797 50.5285 46.4075 50.0588 46.6436C49.5891 46.8772 49.0403 46.994 48.4124 46.994C47.782 46.994 47.2319 46.8772 46.7622 46.6436C46.2925 46.4075 45.9283 46.0797 45.6696 45.6603C45.4109 45.2408 45.2815 44.7548 45.2815 44.2022V39.1612H46.6793V44.0854C46.6793 44.4069 46.7496 44.6933 46.8903 44.9444C47.0335 45.1956 47.2344 45.3928 47.4931 45.5359C47.7518 45.6766 48.0582 45.7469 48.4124 45.7469C48.7666 45.7469 49.073 45.6766 49.3317 45.5359C49.5929 45.3928 49.7938 45.1956 49.9345 44.9444C50.0752 44.6933 50.1455 44.4069 50.1455 44.0854V39.1612Z" fill="#E5FCE8"/>
<path d="M57.2559 41.2823C57.2207 40.9533 57.0725 40.6971 56.8113 40.5137C56.5526 40.3304 56.216 40.2387 55.8016 40.2387C55.5102 40.2387 55.2603 40.2826 55.0518 40.3706C54.8434 40.4585 54.6839 40.5778 54.5734 40.7285C54.4628 40.8792 54.4063 41.0512 54.4038 41.2446C54.4038 41.4054 54.4402 41.5448 54.5131 41.6628C54.5884 41.7809 54.6902 41.8814 54.8183 41.9643C54.9464 42.0446 55.0883 42.1124 55.244 42.1677C55.3997 42.223 55.5567 42.2694 55.7149 42.3071L56.4383 42.4879C56.7297 42.5558 57.0097 42.6474 57.2785 42.763C57.5498 42.8785 57.7922 43.0242 58.0056 43.2C58.2217 43.3758 58.3925 43.5881 58.518 43.8367C58.6436 44.0854 58.7064 44.3768 58.7064 44.7108C58.7064 45.1629 58.5909 45.5611 58.3598 45.9052C58.1287 46.2468 57.7947 46.5143 57.3576 46.7077C56.9231 46.8986 56.3969 46.994 55.779 46.994C55.1787 46.994 54.6575 46.9011 54.2154 46.7152C53.7759 46.5293 53.4318 46.2581 53.1831 45.9014C52.937 45.5447 52.8038 45.1102 52.7838 44.5978H54.1589C54.179 44.8666 54.2619 45.0901 54.4076 45.2684C54.5533 45.4468 54.7429 45.5799 54.9765 45.6678C55.2126 45.7557 55.4763 45.7997 55.7677 45.7997C56.0716 45.7997 56.3379 45.7545 56.5664 45.664C56.7975 45.5711 56.9783 45.443 57.109 45.2797C57.2396 45.114 57.3061 44.9206 57.3086 44.6995C57.3061 44.4986 57.2471 44.3328 57.1316 44.2022C57.016 44.0691 56.854 43.9586 56.6455 43.8707C56.4396 43.7802 56.1985 43.6999 55.9222 43.6295L55.0443 43.4035C54.4088 43.2402 53.9065 42.9928 53.5373 42.6613C53.1706 42.3272 52.9872 41.8839 52.9872 41.3313C52.9872 40.8767 53.1103 40.4786 53.3564 40.137C53.6051 39.7954 53.9429 39.5304 54.3699 39.342C54.7969 39.1511 55.2804 39.0557 55.8204 39.0557C56.368 39.0557 56.8477 39.1511 57.2597 39.342C57.6741 39.5304 57.9994 39.7929 58.2355 40.1294C58.4716 40.4635 58.5934 40.8478 58.6009 41.2823H57.2559Z" fill="#E5FCE8"/>
</svg>
