<svg width="105" height="36" viewBox="0 0 105 36" fill="none" xmlns="http://www.w3.org/2000/svg">
<g clip-path="url(#clip0_2640_14194)">
<path d="M68.8128 15.5475C68.3628 17.4375 67.9128 19.305 67.4853 21.195C66.7428 24.3675 66.0003 27.54 65.2803 30.7125C65.1903 31.1625 65.0103 31.2975 64.5603 31.2975C63.0753 31.275 61.5678 31.2525 60.0828 31.2975C59.4528 31.32 59.2278 31.14 59.0703 30.51C57.6303 24.6375 56.1453 18.7875 54.7278 12.915C54.5478 12.2175 54.3003 11.88 53.5803 12.015C52.9053 12.15 52.6128 11.835 52.5453 11.1825C52.4328 10.3725 52.4328 9.56248 52.6128 8.75248C52.7028 8.34748 52.8378 8.14498 53.3328 8.14498C55.9653 8.16748 58.6203 8.16748 61.2528 8.14498C61.7028 8.14498 61.9053 8.25748 61.9953 8.70748C62.1078 9.26998 62.1528 9.80998 62.1303 10.3725C62.0628 11.79 62.0178 11.835 60.6003 11.8575C60.1953 11.8575 59.9478 11.88 60.0828 12.3975C60.9603 16.2225 61.8153 20.0475 62.8053 23.895C63.0303 22.95 63.2553 22.0275 63.4578 21.0825C64.4028 17.01 65.3478 12.915 66.2478 8.84248C66.3828 8.23498 66.6303 8.09998 67.1928 8.12248C68.4528 8.16748 69.7353 8.16748 70.9953 8.12248C71.6028 8.09998 71.8503 8.27998 71.9853 8.90998C72.9978 13.7475 74.0553 18.585 75.0903 23.4225C75.1128 23.58 75.1803 23.7375 75.3603 23.895C75.7878 22.1175 76.2153 20.34 76.6653 18.5625C77.1378 16.56 77.6103 14.58 78.1278 12.5775C78.2628 12.0375 78.2178 11.8575 77.5878 11.8575C76.2603 11.88 76.2378 11.8575 76.1253 10.485C76.1253 10.3725 76.1028 10.26 76.1028 10.1475C76.0578 8.25748 76.1703 8.12248 78.0603 8.12248C80.2203 8.12248 82.4028 8.14498 84.5628 8.09998C85.1028 8.09998 85.3053 8.30248 85.3728 8.77498C85.4628 9.38248 85.5528 9.98998 85.4853 10.62C85.3278 11.9025 85.3503 11.925 84.0678 11.9475C83.4153 11.97 83.4603 12.42 83.3478 12.78C82.2453 16.8075 81.1428 20.8575 80.0628 24.885C79.5678 26.73 79.0503 28.575 78.6003 30.42C78.4653 31.005 78.2403 31.2525 77.5878 31.23C76.1478 31.1625 74.7303 31.185 73.2903 31.23C72.7053 31.2525 72.4803 31.095 72.3453 30.4875C71.2653 25.4925 70.1403 20.4975 69.0153 15.5025C68.9028 15.57 68.8578 15.5475 68.8128 15.5475Z" fill="#9699A3"/>
<path d="M95.2503 8.145C97.9728 8.145 100.695 8.19 103.44 8.1225C104.25 8.1 104.408 8.37 104.385 9.1125C104.34 10.8225 104.34 12.5325 104.385 14.265C104.408 14.9625 104.115 15.21 103.508 15.3225C102.45 15.5475 101.393 15.525 100.335 15.2775C99.8853 15.165 99.6828 14.9625 99.7053 14.4675C99.7278 13.77 100.02 12.8475 99.5928 12.4425C99.1203 11.9925 98.1978 12.3075 97.4778 12.285C96.4428 12.2625 95.4078 12.285 94.3503 12.2625C93.8553 12.24 93.6528 12.3525 93.6753 12.915C93.7203 14.265 93.7203 15.615 93.6753 16.965C93.6528 17.4825 93.8328 17.64 94.3503 17.6175C96.3978 17.595 98.4453 17.64 100.515 17.595C101.19 17.5725 101.415 17.82 101.483 18.4275C101.595 19.35 101.618 20.2725 101.438 21.195C101.348 21.7125 101.123 21.87 100.605 21.87C98.5578 21.8475 96.5103 21.87 94.4403 21.8475C93.8778 21.8475 93.6528 21.9375 93.6753 22.5675C93.7203 23.895 93.7203 25.2 93.6753 26.5275C93.6528 27.045 93.8328 27.18 94.2828 27.135C94.5528 27.1125 94.8453 27.135 95.1153 27.135C96.2628 27.135 96.3078 27.1575 96.4428 28.3275C96.4428 28.3725 96.4428 28.44 96.4428 28.485C96.6453 30.8025 96.4653 31.005 94.1928 31.005C91.7403 31.005 89.3103 30.9825 86.8578 31.0275C86.3178 31.0275 86.0253 30.915 85.9578 30.33C85.8903 29.8575 85.8453 29.385 85.8453 28.9125C85.8678 27.2025 85.8903 27.18 87.5328 27.1575C87.9828 27.1575 88.1628 27.045 88.1628 26.55C88.1403 21.915 88.1403 17.28 88.1628 12.645C88.1628 12.15 87.9828 12.06 87.5328 12.06C85.9578 12.06 85.8903 11.97 85.8453 10.3725C85.8003 8.28 85.8678 8.2125 87.8928 8.2125C90.3453 8.145 92.7978 8.145 95.2503 8.145Z" fill="#9699A3"/>
<path d="M44.1753 19.575C44.1753 17.28 44.1528 14.9625 44.1978 12.6675C44.1978 12.1275 44.0403 12.015 43.5453 12.015C42.0378 12.015 42.0378 11.9925 41.9028 10.4625C41.8803 10.305 41.8803 10.125 41.8803 9.96746C41.9478 8.21246 41.9928 8.16746 43.7478 8.16746C46.1553 8.16746 48.5853 8.18996 50.9928 8.14496C51.6228 8.12246 51.8253 8.34746 51.9153 8.90996C52.0278 9.69746 52.0503 10.4625 51.9153 11.25C51.8253 11.8125 51.6228 12.15 50.9928 12.015C50.8128 11.97 50.5878 12.0375 50.4078 12.015C49.8453 11.925 49.7103 12.1725 49.7103 12.7125C49.7328 16.11 49.7328 19.5075 49.7328 22.905C49.7328 24.075 49.7553 25.2675 49.7328 26.4375C49.7103 26.9325 49.8228 27.1125 50.3628 27.1125C51.8928 27.1125 51.8928 27.135 52.0278 28.6425C52.0278 28.7325 52.0503 28.8 52.0503 28.89C52.1178 30.78 51.9378 30.96 50.0703 30.96C47.7078 30.96 45.3453 30.9375 42.9828 30.9825C42.3078 31.005 42.0828 30.735 42.0153 30.1725C41.9703 29.7225 41.8803 29.2725 41.9028 28.8225C41.9478 27.225 42.0603 27.1125 43.6353 27.09C44.1528 27.09 44.2203 26.91 44.2203 26.46C44.1528 24.1875 44.1753 21.87 44.1753 19.575Z" fill="#9699A3"/>
<path d="M36.255 17.82C36.4125 27.3375 28.92 35.685 18.8625 36C8.13001 36.3375 0.322507 27.9675 0.142507 18.5175C-0.0599932 7.64999 8.33251 0.269992 17.715 -7.83848e-06C28.11 -0.270008 36.2325 8.12249 36.255 17.82ZM32.7675 17.955C32.79 10.125 26.085 3.66749 18.165 3.66749C10.1325 3.66749 3.63001 10.17 3.60751 18.0675C3.58501 25.965 10.38 32.355 18.345 32.2875C26.3325 32.1975 32.8125 25.8075 32.7675 17.955Z" fill="#B6B9C4"/>
<path d="M18.1647 29.79C11.5047 29.7675 6.14969 24.4575 6.17219 17.8875C6.19469 11.475 11.6847 6.165 18.2322 6.21C24.8697 6.255 30.2697 11.5875 30.2472 18.045C30.2022 24.7725 24.5772 29.79 18.1647 29.79ZM21.0222 17.2575C21.7647 17.2575 22.3497 17.235 22.9347 17.2575C23.3622 17.28 23.5647 17.145 23.4972 16.6725C23.3847 15.84 23.2947 15.0075 23.1147 14.175C23.0247 13.7475 22.8447 13.6125 22.4397 13.635C21.7197 13.6575 20.9772 13.635 20.2572 13.635C18.9297 13.635 18.9297 13.635 18.9522 14.9625C18.9747 15.6825 18.6372 16.605 19.0872 17.0775C19.5147 17.5725 20.4372 17.1675 21.0222 17.2575ZM15.2847 17.2575C15.4872 17.2575 15.6672 17.2575 15.8697 17.2575C17.4897 17.2575 17.4897 17.2575 17.4897 15.615C17.4897 13.6575 17.4897 13.635 15.5322 13.6575C14.8122 13.6575 13.9347 13.365 13.3947 13.7925C12.8547 14.22 13.1472 15.165 13.0122 15.8625C12.7647 17.235 12.8097 17.2575 14.1822 17.2575C14.5422 17.2575 14.9247 17.2575 15.2847 17.2575ZM21.2247 18.675C20.6397 18.675 20.0547 18.675 19.4472 18.675C19.0647 18.6525 18.8847 18.7875 18.9072 19.1925C18.9297 20.025 18.9297 20.88 18.9072 21.7125C18.8847 22.1175 19.0647 22.2525 19.4472 22.2525C20.4372 22.23 21.4047 22.23 22.3947 22.2525C22.9122 22.275 23.1147 22.0725 23.1597 21.6C23.2497 20.9025 23.3397 20.205 23.4747 19.53C23.5872 18.9 23.4972 18.5625 22.7322 18.6525C22.2372 18.72 21.7422 18.675 21.2247 18.675ZM15.1947 18.7425C12.7422 18.675 12.7647 18.675 13.1247 21.0825C13.2597 21.915 13.4847 22.4325 14.4972 22.275C15.0372 22.185 15.6222 22.2525 16.1847 22.2525C17.4897 22.2525 17.5122 22.2525 17.4897 20.97C17.4672 20.2275 17.8272 19.2375 17.3097 18.81C16.8822 18.45 15.9147 18.7425 15.1947 18.7425ZM9.45719 17.2575C11.2347 17.2575 11.2347 17.2575 11.4822 15.5475C11.4822 15.525 11.4822 15.5025 11.5047 15.4575C11.7747 13.635 11.7747 13.635 9.97469 13.635C8.35469 13.635 8.35469 13.635 7.92719 15.21C7.36469 17.2575 7.36469 17.2575 9.45719 17.2575ZM26.9172 17.2575C29.0772 17.235 29.0772 17.235 28.5147 15.255C28.0647 13.6575 28.0647 13.6575 26.3772 13.6575C26.1072 13.6575 25.8147 13.68 25.5447 13.6575C24.8697 13.59 24.4647 13.7025 24.7797 14.535C24.8922 14.85 24.9147 15.1875 24.9372 15.525C25.1172 17.2575 25.1172 17.28 26.9172 17.2575ZM9.45719 18.6525C7.36469 18.675 7.36469 18.675 7.90469 20.7C8.30969 22.2525 8.30969 22.2525 9.97469 22.2525C10.4022 22.2525 10.8072 22.23 11.2347 22.2525C11.6847 22.275 11.8647 22.14 11.7297 21.6675C11.6172 21.2625 11.5047 20.8575 11.4597 20.4525C11.3922 19.8675 11.6397 19.1025 11.1897 18.7875C10.7622 18.5175 10.0422 18.675 9.45719 18.6525ZM24.5997 22.185C27.9297 22.5675 28.3797 22.275 28.7622 19.44C28.7622 19.395 28.7622 19.3275 28.7847 19.2825C28.8747 18.8775 28.7847 18.6525 28.2897 18.675C27.4122 18.6975 26.5572 18.6975 25.6797 18.675C25.2522 18.6525 25.0947 18.81 25.0497 19.2375C24.9822 20.2275 24.8472 21.2175 24.5997 22.185ZM18.9072 10.26C18.9072 10.755 18.9072 11.2725 18.9072 11.7675C18.9072 12.0825 19.0197 12.2175 19.3572 12.2175C20.2572 12.2175 21.1572 12.2175 22.0572 12.2175C22.3722 12.2175 22.4622 12.0825 22.3272 11.8125C21.6972 10.5075 20.9322 9.315 19.6047 8.595C19.1547 8.3475 18.8622 8.3475 18.9072 8.9775C18.9297 9.4275 18.9072 9.8325 18.9072 10.26ZM18.9072 25.6275C18.9072 26.0775 18.9297 26.5275 18.9072 26.9775C18.8397 27.675 19.1322 27.6525 19.6272 27.3825C20.5722 26.8875 21.2697 26.1225 21.7647 25.2225C22.0122 24.7725 22.5747 24.2775 22.3272 23.8275C22.1472 23.49 21.4497 23.76 20.9772 23.715C20.9322 23.715 20.8647 23.715 20.8197 23.715C18.9072 23.6925 18.9072 23.6925 18.9072 25.6275ZM17.4897 25.65C17.4897 25.1775 17.4897 24.705 17.4897 24.2325C17.4897 23.895 17.4222 23.715 17.0397 23.715C16.1397 23.7375 15.2397 23.715 14.3622 23.715C14.0697 23.715 13.9122 23.8275 14.0247 24.12C14.6772 25.5375 15.5097 26.7975 16.9722 27.495C17.3097 27.6525 17.4897 27.6075 17.4672 27.18C17.4672 26.6625 17.4897 26.145 17.4897 25.65ZM17.4897 10.2375C17.4897 9.81 17.4672 9.3825 17.4897 8.9775C17.5347 8.4375 17.3547 8.325 16.8822 8.5725C15.8922 9.09 15.1722 9.855 14.6547 10.8C14.4072 11.2275 13.8897 11.7225 14.1372 12.1275C14.3397 12.465 15.0147 12.2175 15.4872 12.24C17.4897 12.24 17.4897 12.24 17.4897 10.2375ZM21.5847 8.1225C22.6872 9.225 23.4522 10.53 24.0147 11.97C24.0597 12.105 24.1722 12.2175 24.3297 12.2175C25.2297 12.2175 26.1297 12.2175 27.1872 12.2175C25.6572 10.17 23.9922 8.685 21.5847 8.1225ZM27.1872 23.715C26.1972 23.715 25.3872 23.7375 24.5772 23.715C24.1722 23.6925 24.0597 23.94 23.9247 24.2325C23.5197 25.1775 23.0022 26.0775 22.4172 26.91C22.2822 27.1125 21.8547 27.27 22.1247 27.5625C22.3047 27.765 22.6422 27.6075 22.9122 27.495C24.6447 26.685 26.0172 25.4475 27.1872 23.715ZM14.5647 27.9225C13.7547 26.64 12.8772 25.425 12.3597 23.985C12.2922 23.76 12.1122 23.6925 11.9097 23.6925C11.0547 23.6925 10.1997 23.6925 9.20969 23.6925C10.6047 25.83 12.3822 27.1125 14.5647 27.9225ZM14.5872 8.28C13.1922 8.19 10.1322 10.53 9.41219 12.24C10.2672 12.24 11.0997 12.24 11.9322 12.24C12.2472 12.24 12.3597 12.0375 12.4497 11.79C12.9897 10.5075 13.7547 9.3825 14.5872 8.28Z" fill="#B6B9C4"/>
</g>
<defs>
<clipPath id="clip0_2640_14194">
<rect width="104.22" height="36" fill="white" transform="translate(0.142822)"/>
</clipPath>
</defs>
</svg>
