<svg width="36" height="28" viewBox="0 0 36 28" fill="none" xmlns="http://www.w3.org/2000/svg">
<path opacity="0.25" fill-rule="evenodd" clip-rule="evenodd" d="M3.33681 25.9521C3.75234 26.5884 4.18762 27.2549 4.66178 28C10.7303 25.0911 15.2043 20.9081 16.5846 14.1528C17.4889 9.80145 16.8463 5.69054 13.6098 2.32489C11.3014 -0.0551038 7.68412 -0.680153 4.85216 0.786309C2.0916 2.22873 0.544727 5.37802 1.11588 8.43114C1.68703 11.5804 4.20962 13.8883 7.49374 14.273C7.95779 14.327 8.42184 14.3406 8.8859 14.3541C9.04059 14.3586 9.19528 14.3631 9.34998 14.3691C9.89733 17.9271 8.06489 21.0283 2.90073 25.2834C3.04417 25.5039 3.18924 25.7261 3.33681 25.9521ZM22.3784 25.9522C22.7939 26.5885 23.2292 27.255 23.7033 28C29.7718 25.0911 34.2458 20.9081 35.6261 14.1528C36.5304 9.80145 35.8878 5.69054 32.6513 2.32489C30.3429 -0.0551038 26.7256 -0.680153 23.8937 0.786309C21.1331 2.22873 19.5862 5.37802 20.1574 8.43114C20.7285 11.5804 23.2511 13.8883 26.5352 14.273C26.9993 14.327 27.4633 14.3406 27.9274 14.3541C28.0821 14.3586 28.2368 14.3631 28.3915 14.3691C28.9388 17.9271 27.1064 21.0283 21.9422 25.2834C22.0857 25.504 22.2308 25.7262 22.3784 25.9522Z" fill="url(#paint0_linear_2700_9531)"/>
<defs>
<linearGradient id="paint0_linear_2700_9531" x1="0.998047" y1="0" x2="44.7445" y2="5.55105" gradientUnits="userSpaceOnUse">
<stop stop-color="#F55280"/>
<stop offset="1" stop-color="#1CA5FC"/>
</linearGradient>
</defs>
</svg>
