<svg width="124" height="124" viewBox="0 0 124 124" fill="none" xmlns="http://www.w3.org/2000/svg">
<g opacity="0.5">
<circle cx="62" cy="62" r="62" fill="white"/>
<circle cx="62" cy="62" r="62" fill="url(#paint0_linear_2667_3777)"/>
</g>
<path d="M61.9687 102C39.875 102 21.9688 84.0313 22 61.9062C22.0313 39.875 39.9688 22 62.0312 22C84.1249 22 102.062 39.9688 102 62.0938C101.969 84.125 84.0311 102 61.9687 102Z" fill="url(#paint1_linear_2667_3777)" fill-opacity="0.85"/>
<path d="M54.01 62.2976C54.01 65.6595 53.9875 69.0214 54.01 72.3834C54.0324 74.2661 55.5789 75.2747 57.1029 74.4005C63.0424 71.0162 68.937 67.6094 74.8316 64.1578C76.3781 63.2613 76.3781 61.5131 74.8988 60.5269C74.5626 60.3028 74.204 60.1011 73.8454 59.8994C68.4439 56.8064 63.0424 53.691 57.6409 50.598C55.422 49.3205 54.01 50.1273 54.01 52.66C54.01 55.8875 54.01 59.0925 54.01 62.2976Z" fill="white"/>
<path d="M54.01 62.2976C54.01 65.6595 53.9875 69.0214 54.01 72.3834C54.0324 74.2661 55.5789 75.2747 57.1029 74.4005C63.0424 71.0162 68.937 67.6094 74.8316 64.1578C76.3781 63.2613 76.3781 61.5131 74.8988 60.5269C74.5626 60.3028 74.204 60.1011 73.8454 59.8994C68.4439 56.8064 63.0424 53.691 57.6409 50.598C55.422 49.3205 54.01 50.1273 54.01 52.66C54.01 55.8875 54.01 59.0925 54.01 62.2976Z" fill="url(#paint2_linear_2667_3777)"/>
<defs>
<linearGradient id="paint0_linear_2667_3777" x1="62" y1="0" x2="62" y2="124" gradientUnits="userSpaceOnUse">
<stop stop-color="white"/>
<stop offset="1" stop-color="white" stop-opacity="0"/>
</linearGradient>
<linearGradient id="paint1_linear_2667_3777" x1="22" y1="22" x2="122.561" y2="32.2078" gradientUnits="userSpaceOnUse">
<stop stop-color="#F55280"/>
<stop offset="1" stop-color="#1CA5FC"/>
</linearGradient>
<linearGradient id="paint2_linear_2667_3777" x1="65" y1="50" x2="65" y2="74.7189" gradientUnits="userSpaceOnUse">
<stop stop-color="white"/>
<stop offset="1" stop-color="white" stop-opacity="0"/>
</linearGradient>
</defs>
</svg>
