<svg width="124" height="124" viewBox="0 0 124 124" fill="none" xmlns="http://www.w3.org/2000/svg">
<g opacity="0.5">
<circle cx="62" cy="62" r="62" fill="white"/>
<circle cx="62" cy="62" r="62" fill="url(#paint0_linear_2667_3750)"/>
</g>
<path d="M61.9727 97C42.6407 97 26.9727 81.2773 27 61.918C27.0274 42.6406 42.7227 27 62.0274 27C81.3594 27 97.0547 42.7227 97 62.082C96.9727 81.3594 81.2774 97 61.9727 97Z" fill="url(#paint1_linear_2667_3750)" fill-opacity="0.7"/>
<path d="M52.0122 62.003C52.0122 66.1046 51.9848 70.2061 52.0122 74.3077C52.0395 76.6046 53.9262 77.835 55.7856 76.7686C63.0317 72.6397 70.2231 68.4835 77.4145 64.2725C79.3012 63.1788 79.3012 61.046 77.4965 59.8428C77.0864 59.5694 76.6489 59.3233 76.2114 59.0772C69.6215 55.3038 63.0317 51.503 56.4418 47.7296C53.7348 46.171 52.0122 47.1553 52.0122 50.2452C52.0122 54.1827 52.0122 58.0928 52.0122 62.003Z" fill="white"/>
<path d="M52.0122 62.003C52.0122 66.1046 51.9848 70.2061 52.0122 74.3077C52.0395 76.6046 53.9262 77.835 55.7856 76.7686C63.0317 72.6397 70.2231 68.4835 77.4145 64.2725C79.3012 63.1788 79.3012 61.046 77.4965 59.8428C77.0864 59.5694 76.6489 59.3233 76.2114 59.0772C69.6215 55.3038 63.0317 51.503 56.4418 47.7296C53.7348 46.171 52.0122 47.1553 52.0122 50.2452C52.0122 54.1827 52.0122 58.0928 52.0122 62.003Z" fill="url(#paint2_linear_2667_3750)"/>
<defs>
<linearGradient id="paint0_linear_2667_3750" x1="62" y1="0" x2="62" y2="124" gradientUnits="userSpaceOnUse">
<stop stop-color="white"/>
<stop offset="1" stop-color="white" stop-opacity="0"/>
</linearGradient>
<linearGradient id="paint1_linear_2667_3750" x1="27" y1="27" x2="114.991" y2="35.9319" gradientUnits="userSpaceOnUse">
<stop stop-color="#F55280"/>
<stop offset="1" stop-color="#1CA5FC"/>
</linearGradient>
<linearGradient id="paint2_linear_2667_3750" x1="65.42" y1="47" x2="65.42" y2="77.157" gradientUnits="userSpaceOnUse">
<stop stop-color="white"/>
<stop offset="1" stop-color="white" stop-opacity="0"/>
</linearGradient>
</defs>
</svg>
