<?xml version="1.0" standalone="no"?>
<!DOCTYPE svg PUBLIC "-//W3C//DTD SVG 20010904//EN"
 "http://www.w3.org/TR/2001/REC-SVG-20010904/DTD/svg10.dtd">
<svg version="1.0" xmlns="http://www.w3.org/2000/svg"
 width="254.000000pt" height="254.000000pt" viewBox="0 0 254.000000 254.000000"
 preserveAspectRatio="xMidYMid meet">
<metadata>
Created by potrace 1.11, written by Peter Selinger 2001-2013
</metadata>
<g transform="translate(0.000000,254.000000) scale(0.100000,-0.100000)"
fill="#000000" stroke="none">
<path d="M1448 2265 c-2 -1 -41 -6 -88 -9 -105 -8 -152 -13 -210 -21 -25 -4
-61 -9 -80 -11 -148 -20 -180 -27 -180 -43 1 -9 34 -38 75 -66 41 -27 75 -52
75 -55 0 -3 -15 -7 -32 -9 -99 -7 -123 -14 -116 -30 2 -4 37 -36 78 -72 41
-35 81 -70 89 -77 22 -22 22 -191 0 -264 -53 -176 -187 -241 -479 -233 -74 2
-144 6 -155 8 -11 3 -47 8 -80 11 -33 4 -105 17 -160 28 -116 25 -176 28 -182
11 -3 -7 20 -37 51 -67 57 -57 265 -224 352 -284 27 -19 40 -31 29 -28 -35 9
-209 46 -245 52 -19 3 -40 7 -46 9 -6 2 -17 -1 -25 -5 -40 -25 134 -122 330
-184 127 -40 288 -73 401 -84 101 -9 345 -9 450 0 185 16 344 80 425 170 112
125 65 231 -150 343 -39 20 -60 34 -47 31 12 -3 30 -8 40 -11 77 -20 249 -20
315 0 124 37 235 134 289 252 43 94 51 227 19 321 -54 160 -174 269 -337 307
-50 12 -394 20 -406 10z m423 -330 c89 -47 89 -183 0 -230 -114 -58 -236 58
-180 172 10 21 31 46 46 55 35 22 95 23 134 3z"/>
<path d="M2220 2181 c44 -53 83 -127 100 -190 l12 -44 81 84 c129 132 146 159
110 174 -19 7 -120 14 -259 18 l-82 3 38 -45z"/>
<path d="M2145 1324 c-51 -45 -51 -45 -106 -71 l-47 -22 -1 -54 c-1 -128 -82
-268 -211 -362 -45 -33 -168 -88 -220 -99 -14 -3 -36 -7 -49 -10 -60 -13 -180
-20 -336 -20 -224 0 -330 11 -502 55 -47 11 -87 18 -90 15 -13 -12 131 -116
242 -174 92 -48 190 -147 236 -238 l35 -69 99 -2 100 -2 -77 37 c-85 42 -86
44 -24 110 45 48 89 68 196 87 366 67 644 305 759 650 25 76 50 206 39 205 -2
0 -21 -16 -43 -36z"/>
</g>
</svg>
